<?xml version="1.0" encoding="utf-8"?>
<svg xmlns="http://www.w3.org/2000/svg" xmlns:xlink="http://www.w3.org/1999/xlink" width="800" height="700" viewBox="0 0 3200 2800">
<defs>
  <clipPath id="clip3900">
    <rect x="0" y="0" width="3200" height="2800"/>
  </clipPath>
</defs>
<path clip-path="url(#clip3900)" d="
M0 2800 L3200 2800 L3200 0 L0 0  Z
  " fill="#ffffff" fill-rule="evenodd" fill-opacity="1"/>
<defs>
  <clipPath id="clip3901">
    <rect x="640" y="0" width="2241" height="2241"/>
  </clipPath>
</defs>
<path clip-path="url(#clip3900)" d="
M190.008 1218.61 L3152.76 1218.61 L3152.76 47.2441 L190.008 47.2441  Z
  " fill="#ffffff" fill-rule="evenodd" fill-opacity="1"/>
<defs>
  <clipPath id="clip3902">
    <rect x="190" y="47" width="2964" height="1172"/>
  </clipPath>
</defs>
<polyline clip-path="url(#clip3902)" style="stroke:#000000; stroke-width:2; stroke-opacity:0.1; fill:none" points="
  259.526,1218.61 259.526,47.2441 
  "/>
<polyline clip-path="url(#clip3902)" style="stroke:#000000; stroke-width:2; stroke-opacity:0.1; fill:none" points="
  976.204,1218.61 976.204,47.2441 
  "/>
<polyline clip-path="url(#clip3902)" style="stroke:#000000; stroke-width:2; stroke-opacity:0.1; fill:none" points="
  1692.88,1218.61 1692.88,47.2441 
  "/>
<polyline clip-path="url(#clip3902)" style="stroke:#000000; stroke-width:2; stroke-opacity:0.1; fill:none" points="
  2409.56,1218.61 2409.56,47.2441 
  "/>
<polyline clip-path="url(#clip3902)" style="stroke:#000000; stroke-width:2; stroke-opacity:0.1; fill:none" points="
  3126.24,1218.61 3126.24,47.2441 
  "/>
<polyline clip-path="url(#clip3902)" style="stroke:#000000; stroke-width:2; stroke-opacity:0.1; fill:none" points="
  190.008,1109.53 3152.76,1109.53 
  "/>
<polyline clip-path="url(#clip3902)" style="stroke:#000000; stroke-width:2; stroke-opacity:0.1; fill:none" points="
  190.008,867.021 3152.76,867.021 
  "/>
<polyline clip-path="url(#clip3902)" style="stroke:#000000; stroke-width:2; stroke-opacity:0.1; fill:none" points="
  190.008,624.512 3152.76,624.512 
  "/>
<polyline clip-path="url(#clip3902)" style="stroke:#000000; stroke-width:2; stroke-opacity:0.1; fill:none" points="
  190.008,382.002 3152.76,382.002 
  "/>
<polyline clip-path="url(#clip3902)" style="stroke:#000000; stroke-width:2; stroke-opacity:0.1; fill:none" points="
  190.008,139.493 3152.76,139.493 
  "/>
<polyline clip-path="url(#clip3900)" style="stroke:#000000; stroke-width:4; stroke-opacity:1; fill:none" points="
  190.008,1218.61 3152.76,1218.61 
  "/>
<polyline clip-path="url(#clip3900)" style="stroke:#000000; stroke-width:4; stroke-opacity:1; fill:none" points="
  190.008,1218.61 190.008,47.2441 
  "/>
<polyline clip-path="url(#clip3900)" style="stroke:#000000; stroke-width:4; stroke-opacity:1; fill:none" points="
  259.526,1218.61 259.526,1204.55 
  "/>
<polyline clip-path="url(#clip3900)" style="stroke:#000000; stroke-width:4; stroke-opacity:1; fill:none" points="
  976.204,1218.61 976.204,1204.55 
  "/>
<polyline clip-path="url(#clip3900)" style="stroke:#000000; stroke-width:4; stroke-opacity:1; fill:none" points="
  1692.88,1218.61 1692.88,1204.55 
  "/>
<polyline clip-path="url(#clip3900)" style="stroke:#000000; stroke-width:4; stroke-opacity:1; fill:none" points="
  2409.56,1218.61 2409.56,1204.55 
  "/>
<polyline clip-path="url(#clip3900)" style="stroke:#000000; stroke-width:4; stroke-opacity:1; fill:none" points="
  3126.24,1218.61 3126.24,1204.55 
  "/>
<polyline clip-path="url(#clip3900)" style="stroke:#000000; stroke-width:4; stroke-opacity:1; fill:none" points="
  190.008,1109.53 225.561,1109.53 
  "/>
<polyline clip-path="url(#clip3900)" style="stroke:#000000; stroke-width:4; stroke-opacity:1; fill:none" points="
  190.008,867.021 225.561,867.021 
  "/>
<polyline clip-path="url(#clip3900)" style="stroke:#000000; stroke-width:4; stroke-opacity:1; fill:none" points="
  190.008,624.512 225.561,624.512 
  "/>
<polyline clip-path="url(#clip3900)" style="stroke:#000000; stroke-width:4; stroke-opacity:1; fill:none" points="
  190.008,382.002 225.561,382.002 
  "/>
<polyline clip-path="url(#clip3900)" style="stroke:#000000; stroke-width:4; stroke-opacity:1; fill:none" points="
  190.008,139.493 225.561,139.493 
  "/>
<g clip-path="url(#clip3900)">
<text style="fill:#000000; fill-opacity:1; font-family:Arial,Helvetica Neue,Helvetica,sans-serif; font-size:48px; text-anchor:middle;" transform="rotate(0, 259.526, 1276.61)" x="259.526" y="1276.61">0</text>
</g>
<g clip-path="url(#clip3900)">
<text style="fill:#000000; fill-opacity:1; font-family:Arial,Helvetica Neue,Helvetica,sans-serif; font-size:48px; text-anchor:middle;" transform="rotate(0, 976.204, 1276.61)" x="976.204" y="1276.61">50</text>
</g>
<g clip-path="url(#clip3900)">
<text style="fill:#000000; fill-opacity:1; font-family:Arial,Helvetica Neue,Helvetica,sans-serif; font-size:48px; text-anchor:middle;" transform="rotate(0, 1692.88, 1276.61)" x="1692.88" y="1276.61">100</text>
</g>
<g clip-path="url(#clip3900)">
<text style="fill:#000000; fill-opacity:1; font-family:Arial,Helvetica Neue,Helvetica,sans-serif; font-size:48px; text-anchor:middle;" transform="rotate(0, 2409.56, 1276.61)" x="2409.56" y="1276.61">150</text>
</g>
<g clip-path="url(#clip3900)">
<text style="fill:#000000; fill-opacity:1; font-family:Arial,Helvetica Neue,Helvetica,sans-serif; font-size:48px; text-anchor:middle;" transform="rotate(0, 3126.24, 1276.61)" x="3126.24" y="1276.61">200</text>
</g>
<g clip-path="url(#clip3900)">
<text style="fill:#000000; fill-opacity:1; font-family:Arial,Helvetica Neue,Helvetica,sans-serif; font-size:48px; text-anchor:end;" transform="rotate(0, 158.008, 1127.03)" x="158.008" y="1127.03">-1.0</text>
</g>
<g clip-path="url(#clip3900)">
<text style="fill:#000000; fill-opacity:1; font-family:Arial,Helvetica Neue,Helvetica,sans-serif; font-size:48px; text-anchor:end;" transform="rotate(0, 158.008, 884.521)" x="158.008" y="884.521">-0.5</text>
</g>
<g clip-path="url(#clip3900)">
<text style="fill:#000000; fill-opacity:1; font-family:Arial,Helvetica Neue,Helvetica,sans-serif; font-size:48px; text-anchor:end;" transform="rotate(0, 158.008, 642.012)" x="158.008" y="642.012">0.0</text>
</g>
<g clip-path="url(#clip3900)">
<text style="fill:#000000; fill-opacity:1; font-family:Arial,Helvetica Neue,Helvetica,sans-serif; font-size:48px; text-anchor:end;" transform="rotate(0, 158.008, 399.502)" x="158.008" y="399.502">0.5</text>
</g>
<g clip-path="url(#clip3900)">
<text style="fill:#000000; fill-opacity:1; font-family:Arial,Helvetica Neue,Helvetica,sans-serif; font-size:48px; text-anchor:end;" transform="rotate(0, 158.008, 156.993)" x="158.008" y="156.993">1.0</text>
</g>
<polyline clip-path="url(#clip3902)" style="stroke:#009af9; stroke-width:4; stroke-opacity:1; fill:none" points="
  273.859,1070.07 288.193,674.25 302.527,216.372 316.86,136.692 331.194,456.171 345.527,885.349 359.861,1136.01 374.194,812.082 388.528,513.322 402.861,117.104 
  417.195,319.701 431.529,795.6 445.862,1089.03 460.196,1047.23 474.529,566.98 488.863,139.485 503.196,127.971 517.53,640.168 531.864,1104.05 546.197,1122.13 
  560.531,720.69 574.864,274.156 589.198,129.428 603.531,498.446 617.865,879.997 632.199,1088.15 646.532,753.084 660.866,406 675.199,163.848 689.533,404.061 
  703.866,781.274 718.2,1185.46 732.533,925.377 746.867,573.002 761.201,170.584 775.534,209.38 789.868,715.04 804.201,1161.54 818.535,998.364 832.868,565.717 
  847.202,166.184 861.536,107.496 875.869,554.041 890.203,955.299 904.536,1096.41 918.87,788.488 933.203,327.26 947.537,168.594 961.871,328.624 976.204,776.272 
  990.538,1137.05 1004.87,852.362 1019.2,404.331 1033.54,90.3042 1047.87,301.137 1062.21,761.136 1076.54,1153.08 1090.87,886.073 1105.21,511.248 1119.54,169.366 
  1133.87,239.195 1148.21,519.19 1162.54,1100.76 1176.87,1012.48 1191.21,739.661 1205.54,261.511 1219.87,132.442 1234.21,437.038 1248.54,910.555 1262.88,1109.78 
  1277.21,758.067 1291.54,329.959 1305.88,93.0538 1320.21,331.512 1334.54,858.151 1348.88,1108.37 1363.21,859.797 1377.54,456.013 1391.88,204.538 1406.21,312.762 
  1420.54,793.071 1434.88,1114.96 1449.21,1000.22 1463.55,533.031 1477.88,246.327 1492.21,132.787 1506.55,565.434 1520.88,985.569 1535.21,1069.33 1549.55,709.765 
  1563.88,332.683 1578.21,157.413 1592.55,419.775 1606.88,912.716 1621.21,1149.64 1635.55,805.891 1649.88,568.392 1664.22,397.389 1678.55,374.584 1692.88,228.384 
  1707.22,125.007 1721.55,128.998 1735.88,130.994 1750.22,170.675 1764.55,175.172 1778.88,166.008 1793.22,246.093 1807.55,258.801 1821.88,321.868 1836.22,524.59 
  1850.55,406.74 1864.89,568.41 1879.22,758.4 1893.55,864.324 1907.89,917.795 1922.22,919.494 1936.55,1057.77 1950.89,1065.65 1965.22,1113.26 1979.55,1089.47 
  1993.89,1137.8 2008.22,1099.53 2022.55,963.366 2036.89,920.772 2051.22,910.401 2065.56,797.794 2079.89,683.847 2094.22,598.711 2108.56,517.454 2122.89,409.156 
  2137.22,376.197 2151.56,228.743 2165.89,146.797 2180.22,148.771 2194.56,262.742 2208.89,246.407 2223.22,201.356 2237.56,224.101 2251.89,257.794 2266.22,365.788 
  2280.56,489.526 2294.89,534.817 2309.23,579.492 2323.56,687.327 2337.89,822.459 2352.23,897.409 2366.56,974.068 2380.89,1021.7 2395.23,1161.9 2409.56,1051.25 
  2423.89,1093.28 2438.23,1078.63 2452.56,1079.84 2466.89,1028.87 2481.23,982.005 2495.56,900.314 2509.9,800.563 2524.23,688.198 2538.56,516.032 2552.9,455.941 
  2567.23,413.058 2581.56,370.127 2595.9,271.284 2610.23,221.529 2624.56,195.869 2638.9,137.514 2653.23,80.396 2667.56,184.439 2681.9,230.417 2696.23,188.988 
  2710.57,291.265 2724.9,386.146 2739.23,467.381 2753.57,493.589 2767.9,654.611 2782.23,754.669 2796.57,824.759 2810.9,851.694 2825.23,1045.39 2839.57,1017.5 
  2853.9,1086.73 2868.23,1077.23 2882.57,1143.18 2896.9,1146.24 2911.24,1067.28 2925.57,1004.17 2939.9,892.166 2954.24,762.934 2968.57,795.629 2982.9,649.633 
  2997.24,618.481 3011.57,388.952 3025.9,368.605 3040.24,288.278 3054.57,216.267 3068.9,242.275 
  "/>
<polyline clip-path="url(#clip3902)" style="stroke:#e26f46; stroke-width:4; stroke-opacity:1; fill:none" points="
  273.859,1070.07 288.193,710.528 302.527,263.707 316.86,180.115 331.194,499.505 345.527,926.873 359.861,1136.19 374.194,856.804 388.528,469.658 402.861,166.665 
  417.195,287.206 431.529,759.054 445.862,1086.61 460.196,1009.47 474.529,561.767 488.863,139.649 503.196,130.917 517.53,607.436 531.864,1109.84 546.197,1137.9 
  560.531,701.13 574.864,232.949 589.198,120.187 603.531,463.949 617.865,900.062 632.199,1070.87 646.532,801.123 660.866,399.423 675.199,209.402 689.533,406.659 
  703.866,802.363 718.2,1106.69 732.533,965.041 746.867,508.13 761.201,147.91 775.534,190.329 789.868,648.61 804.201,1106.27 818.535,1047 832.868,542.296 
  847.202,141.676 861.536,164.717 875.869,582.799 890.203,1026.43 904.536,1125.49 918.87,806.876 933.203,349.385 947.537,165.762 961.871,374.33 976.204,793.259 
  990.538,1104.8 1004.87,952.459 1019.2,461.566 1033.54,146.01 1047.87,326.044 1062.21,805.093 1076.54,1149.21 1090.87,976.21 1105.21,490.359 1119.54,175.701 
  1133.87,277.453 1148.21,626.005 1162.54,1034.61 1176.87,1103.78 1191.21,733.378 1205.54,275.327 1219.87,145.725 1234.21,445.663 1248.54,914.962 1262.88,1129.5 
  1277.21,838.834 1291.54,356.11 1305.88,147.724 1320.21,387.927 1334.54,875.181 1348.88,1156.16 1363.21,927.43 1377.54,448.608 1391.88,194.348 1406.21,341.09 
  1420.54,753.811 1434.88,1069.34 1449.21,970.381 1463.55,513.989 1477.88,170.395 1492.21,200.44 1506.55,568.517 1520.88,999.161 1535.21,1104.17 1549.55,757.753 
  1563.88,322.42 1578.21,185.803 1592.55,437.127 1606.88,879.773 1621.21,1121.8 1635.55,867.334 1649.88,433.576 1664.22,268.681 1678.55,382.612 1692.88,467.752 
  1707.22,408.047 1721.55,294.382 1735.88,251.71 1750.22,265.634 1764.55,272.935 1778.88,244.75 1793.22,237.567 1807.55,282.837 1821.88,321.337 1836.22,426.961 
  1850.55,531.195 1864.89,518.65 1879.22,641.835 1893.55,815.844 1907.89,946.733 1922.22,917.91 1936.55,916.075 1950.89,1026.37 1965.22,1080.13 1979.55,1104.09 
  1993.89,1083.62 2008.22,1109.92 2022.55,1039.15 2036.89,904.626 2051.22,843.463 2065.56,827.791 2079.89,733.312 2094.22,601.748 2108.56,508.276 2122.89,438.311 
  2137.22,364.598 2151.56,303.468 2165.89,167.282 2180.22,91.7897 2194.56,150.713 2208.89,304.537 2223.22,305.095 2237.56,234.071 2251.89,223.008 2266.22,306.326 
  2280.56,456.373 2294.89,580.7 2309.23,623.04 2323.56,655.058 2337.89,761.081 2352.23,904.494 2366.56,978.919 2380.89,1009.3 2395.23,1056.32 2409.56,1140.07 
  2423.89,1045.2 2438.23,1030.25 2452.56,1016.39 2466.89,1044.76 2481.23,975.816 2495.56,907.409 2509.9,804.673 2524.23,691.379 2538.56,547.883 2552.9,398.842 
  2567.23,353.286 2581.56,353.44 2595.9,330.804 2610.23,229.746 2624.56,170.605 2638.9,145.364 2653.23,100.2 2667.56,83.6296 2681.9,200.277 2696.23,268.358 
  2710.57,261.9 2724.9,338.515 2739.23,460.06 2753.57,548.129 2767.9,591.093 2782.23,729.38 2796.57,837.027 2810.9,887.743 2825.23,921.093 2839.57,1075.23 
  2853.9,1086.93 2868.23,1108.03 2882.57,1085.94 2896.9,1151.37 2911.24,1128.44 2925.57,1032.4 2939.9,911.471 2954.24,778.969 2968.57,694.189 2982.9,692.099 
  2997.24,609.335 3011.57,511.517 3025.9,317.402 3040.24,295.081 3054.57,266.552 3068.9,262.36 
  "/>
<path clip-path="url(#clip3900)" d="
M2383.65 360.204 L3056.76 360.204 L3056.76 178.764 L2383.65 178.764  Z
  " fill="#ffffff" fill-rule="evenodd" fill-opacity="1"/>
<polyline clip-path="url(#clip3900)" style="stroke:#000000; stroke-width:4; stroke-opacity:1; fill:none" points="
  2383.65,360.204 3056.76,360.204 3056.76,178.764 2383.65,178.764 2383.65,360.204 
  "/>
<polyline clip-path="url(#clip3900)" style="stroke:#009af9; stroke-width:4; stroke-opacity:1; fill:none" points="
  2415.65,239.244 2607.65,239.244 
  "/>
<g clip-path="url(#clip3900)">
<text style="fill:#000000; fill-opacity:1; font-family:Arial,Helvetica Neue,Helvetica,sans-serif; font-size:48px; text-anchor:start;" transform="rotate(0, 2639.65, 256.744)" x="2639.65" y="256.744">Measured signal</text>
</g>
<polyline clip-path="url(#clip3900)" style="stroke:#e26f46; stroke-width:4; stroke-opacity:1; fill:none" points="
  2415.65,299.724 2607.65,299.724 
  "/>
<g clip-path="url(#clip3900)">
<text style="fill:#000000; fill-opacity:1; font-family:Arial,Helvetica Neue,Helvetica,sans-serif; font-size:48px; text-anchor:start;" transform="rotate(0, 2639.65, 317.224)" x="2639.65" y="317.224">Prediction</text>
</g>
<path clip-path="url(#clip3900)" d="
M190.008 2665 L3152.76 2665 L3152.76 1493.63 L190.008 1493.63  Z
  " fill="#ffffff" fill-rule="evenodd" fill-opacity="1"/>
<defs>
  <clipPath id="clip3903">
    <rect x="190" y="1493" width="2964" height="1172"/>
  </clipPath>
</defs>
<polyline clip-path="url(#clip3903)" style="stroke:#000000; stroke-width:2; stroke-opacity:0.1; fill:none" points="
  259.526,2665 259.526,1493.63 
  "/>
<polyline clip-path="url(#clip3903)" style="stroke:#000000; stroke-width:2; stroke-opacity:0.1; fill:none" points="
  976.204,2665 976.204,1493.63 
  "/>
<polyline clip-path="url(#clip3903)" style="stroke:#000000; stroke-width:2; stroke-opacity:0.1; fill:none" points="
  1692.88,2665 1692.88,1493.63 
  "/>
<polyline clip-path="url(#clip3903)" style="stroke:#000000; stroke-width:2; stroke-opacity:0.1; fill:none" points="
  2409.56,2665 2409.56,1493.63 
  "/>
<polyline clip-path="url(#clip3903)" style="stroke:#000000; stroke-width:2; stroke-opacity:0.1; fill:none" points="
  3126.24,2665 3126.24,1493.63 
  "/>
<polyline clip-path="url(#clip3903)" style="stroke:#000000; stroke-width:2; stroke-opacity:0.1; fill:none" points="
  190.008,2515.56 3152.76,2515.56 
  "/>
<polyline clip-path="url(#clip3903)" style="stroke:#000000; stroke-width:2; stroke-opacity:0.1; fill:none" points="
  190.008,2263.18 3152.76,2263.18 
  "/>
<polyline clip-path="url(#clip3903)" style="stroke:#000000; stroke-width:2; stroke-opacity:0.1; fill:none" points="
  190.008,2010.8 3152.76,2010.8 
  "/>
<polyline clip-path="url(#clip3903)" style="stroke:#000000; stroke-width:2; stroke-opacity:0.1; fill:none" points="
  190.008,1758.42 3152.76,1758.42 
  "/>
<polyline clip-path="url(#clip3903)" style="stroke:#000000; stroke-width:2; stroke-opacity:0.1; fill:none" points="
  190.008,1506.04 3152.76,1506.04 
  "/>
<polyline clip-path="url(#clip3900)" style="stroke:#000000; stroke-width:4; stroke-opacity:1; fill:none" points="
  190.008,2665 3152.76,2665 
  "/>
<polyline clip-path="url(#clip3900)" style="stroke:#000000; stroke-width:4; stroke-opacity:1; fill:none" points="
  190.008,2665 190.008,1493.63 
  "/>
<polyline clip-path="url(#clip3900)" style="stroke:#000000; stroke-width:4; stroke-opacity:1; fill:none" points="
  259.526,2665 259.526,2650.94 
  "/>
<polyline clip-path="url(#clip3900)" style="stroke:#000000; stroke-width:4; stroke-opacity:1; fill:none" points="
  976.204,2665 976.204,2650.94 
  "/>
<polyline clip-path="url(#clip3900)" style="stroke:#000000; stroke-width:4; stroke-opacity:1; fill:none" points="
  1692.88,2665 1692.88,2650.94 
  "/>
<polyline clip-path="url(#clip3900)" style="stroke:#000000; stroke-width:4; stroke-opacity:1; fill:none" points="
  2409.56,2665 2409.56,2650.94 
  "/>
<polyline clip-path="url(#clip3900)" style="stroke:#000000; stroke-width:4; stroke-opacity:1; fill:none" points="
  3126.24,2665 3126.24,2650.94 
  "/>
<polyline clip-path="url(#clip3900)" style="stroke:#000000; stroke-width:4; stroke-opacity:1; fill:none" points="
  190.008,2515.56 225.561,2515.56 
  "/>
<polyline clip-path="url(#clip3900)" style="stroke:#000000; stroke-width:4; stroke-opacity:1; fill:none" points="
  190.008,2263.18 225.561,2263.18 
  "/>
<polyline clip-path="url(#clip3900)" style="stroke:#000000; stroke-width:4; stroke-opacity:1; fill:none" points="
  190.008,2010.8 225.561,2010.8 
  "/>
<polyline clip-path="url(#clip3900)" style="stroke:#000000; stroke-width:4; stroke-opacity:1; fill:none" points="
  190.008,1758.42 225.561,1758.42 
  "/>
<polyline clip-path="url(#clip3900)" style="stroke:#000000; stroke-width:4; stroke-opacity:1; fill:none" points="
  190.008,1506.04 225.561,1506.04 
  "/>
<g clip-path="url(#clip3900)">
<text style="fill:#000000; fill-opacity:1; font-family:Arial,Helvetica Neue,Helvetica,sans-serif; font-size:48px; text-anchor:middle;" transform="rotate(0, 259.526, 2723)" x="259.526" y="2723">0</text>
</g>
<g clip-path="url(#clip3900)">
<text style="fill:#000000; fill-opacity:1; font-family:Arial,Helvetica Neue,Helvetica,sans-serif; font-size:48px; text-anchor:middle;" transform="rotate(0, 976.204, 2723)" x="976.204" y="2723">50</text>
</g>
<g clip-path="url(#clip3900)">
<text style="fill:#000000; fill-opacity:1; font-family:Arial,Helvetica Neue,Helvetica,sans-serif; font-size:48px; text-anchor:middle;" transform="rotate(0, 1692.88, 2723)" x="1692.88" y="2723">100</text>
</g>
<g clip-path="url(#clip3900)">
<text style="fill:#000000; fill-opacity:1; font-family:Arial,Helvetica Neue,Helvetica,sans-serif; font-size:48px; text-anchor:middle;" transform="rotate(0, 2409.56, 2723)" x="2409.56" y="2723">150</text>
</g>
<g clip-path="url(#clip3900)">
<text style="fill:#000000; fill-opacity:1; font-family:Arial,Helvetica Neue,Helvetica,sans-serif; font-size:48px; text-anchor:middle;" transform="rotate(0, 3126.24, 2723)" x="3126.24" y="2723">200</text>
</g>
<g clip-path="url(#clip3900)">
<text style="fill:#000000; fill-opacity:1; font-family:Arial,Helvetica Neue,Helvetica,sans-serif; font-size:48px; text-anchor:end;" transform="rotate(0, 158.008, 2533.06)" x="158.008" y="2533.06">-0.2</text>
</g>
<g clip-path="url(#clip3900)">
<text style="fill:#000000; fill-opacity:1; font-family:Arial,Helvetica Neue,Helvetica,sans-serif; font-size:48px; text-anchor:end;" transform="rotate(0, 158.008, 2280.68)" x="158.008" y="2280.68">0.0</text>
</g>
<g clip-path="url(#clip3900)">
<text style="fill:#000000; fill-opacity:1; font-family:Arial,Helvetica Neue,Helvetica,sans-serif; font-size:48px; text-anchor:end;" transform="rotate(0, 158.008, 2028.3)" x="158.008" y="2028.3">0.2</text>
</g>
<g clip-path="url(#clip3900)">
<text style="fill:#000000; fill-opacity:1; font-family:Arial,Helvetica Neue,Helvetica,sans-serif; font-size:48px; text-anchor:end;" transform="rotate(0, 158.008, 1775.92)" x="158.008" y="1775.92">0.4</text>
</g>
<g clip-path="url(#clip3900)">
<text style="fill:#000000; fill-opacity:1; font-family:Arial,Helvetica Neue,Helvetica,sans-serif; font-size:48px; text-anchor:end;" transform="rotate(0, 158.008, 1523.54)" x="158.008" y="1523.54">0.6</text>
</g>
<g clip-path="url(#clip3900)">
<text style="fill:#000000; fill-opacity:1; font-family:Arial,Helvetica Neue,Helvetica,sans-serif; font-size:82px; text-anchor:middle;" transform="rotate(0, 1671.38, 1425.62)" x="1671.38" y="1425.62">RMS: 0.12109979128815059</text>
</g>
<polyline clip-path="url(#clip3903)" style="stroke:#009af9; stroke-width:4; stroke-opacity:1; fill:none" points="
  273.859,2263.18 288.193,2168.8 302.527,2140.03 316.86,2150.21 331.194,2150.44 345.527,2155.15 359.861,2262.71 374.194,2146.83 388.528,2376.79 402.861,2134.24 
  417.195,2347.73 431.529,2358.27 445.862,2269.49 460.196,2361.42 474.529,2276.75 488.863,2262.76 503.196,2255.52 517.53,2348.35 531.864,2248.11 546.197,2222.15 
  560.531,2314.07 574.864,2370.39 589.198,2287.23 603.531,2352.94 617.865,2210.98 632.199,2308.16 646.532,2138.2 660.866,2280.3 675.199,2144.66 689.533,2256.42 
  703.866,2208.32 718.2,2468.12 732.533,2159.99 746.867,2431.96 761.201,2322.18 775.534,2312.75 789.868,2436.02 804.201,2407 818.535,2136.65 832.868,2324.12 
  847.202,2326.95 861.536,2114.31 875.869,2188.36 890.203,2078.12 904.536,2187.53 918.87,2215.34 933.203,2205.62 947.537,2270.55 961.871,2144.27 976.204,2218.99 
  990.538,2347.09 1004.87,2002.76 1019.2,2114.27 1033.54,2118.25 1047.87,2198.38 1062.21,2148.82 1076.54,2273.26 1090.87,2028.67 1105.21,2317.53 1119.54,2246.7 
  1133.87,2163.65 1148.21,1985.28 1162.54,2435.29 1176.87,2025.66 1191.21,2279.53 1205.54,2227.24 1219.87,2228.62 1234.21,2240.74 1248.54,2251.72 1262.88,2211.87 
  1277.21,2053.05 1291.54,2195.15 1305.88,2120.95 1320.21,2116.41 1334.54,2218.87 1348.88,2138.86 1363.21,2087.22 1377.54,2282.45 1391.88,2289.7 1406.21,2189.48 
  1420.54,2365.33 1434.88,2381.87 1449.21,2340.81 1463.55,2312.72 1477.88,2460.74 1492.21,2087.17 1506.55,2255.16 1520.88,2227.82 1535.21,2172.52 1549.55,2138.33 
  1563.88,2289.89 1578.21,2189.32 1592.55,2218.04 1606.88,2348.89 1621.21,2335.62 1635.55,2103.33 1649.88,2613.94 1664.22,2598.05 1678.55,2242.3 1692.88,1640.4 
  1707.22,1526.78 1721.55,1832.89 1735.88,1949.11 1750.22,2016.12 1764.55,2008.83 1778.88,2058.32 1793.22,2285.37 1807.55,2200.65 1821.88,2264.57 1836.22,2517.19 
  1850.55,1939.38 1864.89,2392.65 1879.22,2566.46 1893.55,2389.32 1907.89,2187.89 1922.22,2267.31 1936.55,2631.84 1950.89,2365.39 1965.22,2349.38 1979.55,2225.14 
  1993.89,2404.14 2008.22,2236.17 2022.55,2066.02 2036.89,2305.19 2051.22,2437.34 2065.56,2185.14 2079.89,2134.49 2094.22,2255.28 2108.56,2287.06 2122.89,2187.33 
  2137.22,2293.36 2151.56,2068.77 2165.89,2209.89 2180.22,2411.43 2194.56,2554.66 2208.89,2111.94 2223.22,1993.28 2237.56,2237.24 2251.89,2353.69 2266.22,2417.89 
  2280.56,2349.44 2294.89,2143.81 2309.23,2149.88 2323.56,2347.14 2337.89,2422.88 2352.23,2244.75 2366.56,2250.56 2380.89,2295.45 2395.23,2537.87 2409.56,2032.1 
  2423.89,2388.28 2438.23,2389.05 2452.56,2428.26 2466.89,2221.84 2481.23,2279.29 2495.56,2244.72 2509.9,2252.49 2524.23,2254.91 2538.56,2180.32 2552.9,2411.74 
  2567.23,2418.7 2581.56,2306.6 2595.9,2108.33 2610.23,2241.8 2624.56,2328.92 2638.9,2242.76 2653.23,2211.66 2667.56,2525.47 2681.9,2341.6 2696.23,2056.68 
  2710.57,2339.58 2724.9,2387.11 2739.23,2282.23 2753.57,2121.28 2767.9,2428.44 2782.23,2328.98 2796.57,2231.27 2810.9,2169.39 2825.23,2586.58 2839.57,2113 
  2853.9,2262.67 2868.23,2183.04 2882.57,2412.1 2896.9,2249.86 2911.24,2104.04 2925.57,2189.73 2939.9,2212.96 2954.24,2221.46 2968.57,2527.1 2982.9,2152.7 
  2997.24,2286.98 3011.57,1944.3 3025.9,2396.4 3040.24,2245.48 3054.57,2132.35 3068.9,2210.93 
  "/>
<path clip-path="url(#clip3900)" d="
M2629.8 1746.11 L3056.76 1746.11 L3056.76 1625.15 L2629.8 1625.15  Z
  " fill="#ffffff" fill-rule="evenodd" fill-opacity="1"/>
<polyline clip-path="url(#clip3900)" style="stroke:#000000; stroke-width:4; stroke-opacity:1; fill:none" points="
  2629.8,1746.11 3056.76,1746.11 3056.76,1625.15 2629.8,1625.15 2629.8,1746.11 
  "/>
<polyline clip-path="url(#clip3900)" style="stroke:#009af9; stroke-width:4; stroke-opacity:1; fill:none" points="
  2661.8,1685.63 2853.8,1685.63 
  "/>
<g clip-path="url(#clip3900)">
<text style="fill:#000000; fill-opacity:1; font-family:Arial,Helvetica Neue,Helvetica,sans-serif; font-size:48px; text-anchor:start;" transform="rotate(0, 2885.8, 1703.13)" x="2885.8" y="1703.13">Error</text>
</g>
</svg>
